<svg viewBox="0 0 98 101" fill="none" xmlns="http://www.w3.org/2000/svg">
<path d="M86.214 23.1441H72.0457V21.6439C72.0457 14.9419 66.768 9.50256 60.265 9.50256H37.7324C31.2268 9.50256 25.9517 14.9419 25.9517 21.6439V23.1441H11.7807C5.27515 23.1441 0 28.5807 0 35.2854V79.3559C0 86.058 5.27515 91.4973 11.7807 91.4973H86.2193C92.7249 91.4973 98 86.058 98 79.3559V35.2854C97.9948 28.578 92.7196 23.1441 86.214 23.1441ZM48.9948 78.9026C36.7219 78.9026 26.7423 68.6175 26.7423 55.9689C26.7423 43.323 36.7219 33.0352 48.9948 33.0352C61.2677 33.0352 71.2473 43.3203 71.2473 55.9689C71.2473 68.6175 61.2651 78.9026 48.9948 78.9026ZM60.7755 55.9689C60.7755 62.6575 55.4873 68.1103 48.9948 68.1103C42.5023 68.1103 37.214 62.6575 37.214 55.9689C37.214 49.2777 42.5023 43.8276 48.9948 43.8276C55.4873 43.8276 60.7755 49.2777 60.7755 55.9689Z" fill="#B7C8E4"/>
</svg>
