<svg width="17" height="18" viewBox="0 0 17 18" fill="none" xmlns="http://www.w3.org/2000/svg">
<path d="M15.6506 7.19922H5.75683C5.01681 7.19922 4.40967 7.80183 4.40967 8.54523V16.6533C4.40967 17.3955 5.0128 17.9993 5.75683 17.9993H15.6507C16.3907 17.9993 16.9978 17.3967 16.9978 16.6533V8.54523C16.9978 7.80301 16.3947 7.19922 15.6506 7.19922ZM15.1995 16.1993H6.20798V8.99921H15.1995V16.1993Z" fill="#B8C0D8"/>
<path d="M4.33767 0H4.65369C7.04832 0 8.99146 1.9479 8.99146 4.34443V7.78886H7.19314V4.34443C7.19314 2.94143 6.05456 1.80003 4.65369 1.80003H4.33767C2.93756 1.80003 1.79822 2.94067 1.79822 4.34502V5.40005H-9.34601e-05V4.34498C-9.34601e-05 1.94659 1.94431 0 4.33767 0Z" fill="#B8C0D8"/>
</svg>
