<svg width="20" height="20" viewBox="0 0 20 20" fill="none" xmlns="http://www.w3.org/2000/svg">
<path d="M19.3906 10.4961C16.8945 7.42188 13.5586 5.72656 10 5.72656C6.44141 5.72656 3.10547 7.42188 0.609375 10.4961C0.371094 10.7891 0.371094 11.207 0.609375 11.5C3.10547 14.5781 6.44141 16.2734 10 16.2734C13.5586 16.2734 16.8945 14.5781 19.3906 11.5039C19.6289 11.2109 19.6289 10.7891 19.3906 10.4961ZM10 13.6133C8.55859 13.6133 7.38672 12.4414 7.38672 11C7.38672 9.55859 8.55859 8.38672 10 8.38672C11.4414 8.38672 12.6133 9.55859 12.6133 11C12.6133 12.4414 11.4414 13.6133 10 13.6133ZM2.27344 11C3.75 9.35156 5.51172 8.22266 7.41016 7.68359C6.42578 8.45313 5.78906 9.65234 5.78906 11C5.78906 12.3438 6.42188 13.543 7.41016 14.3164C5.51172 13.7773 3.75391 12.6484 2.27344 11ZM12.5898 14.3164C13.5742 13.5469 14.2109 12.3477 14.2109 11C14.2109 9.65625 13.5781 8.45703 12.5898 7.68359C14.4883 8.22266 16.25 9.35156 17.7266 11C16.2461 12.6484 14.4883 13.7773 12.5898 14.3164Z" fill="#CCD2E3"/>
<path d="M2 2L18 18" stroke="#F2F7FF" stroke-width="4"/>
<path d="M4 4L17 17" stroke="#CCD2E3" stroke-width="2"/>
</svg>
