<svg width="16" height="18" viewBox="0 0 16 18" fill="none" xmlns="http://www.w3.org/2000/svg">
<path d="M12.1667 17.3334H3.83333C2.91286 17.3334 2.16667 16.5872 2.16667 15.6667V4.83342H0.5V3.16675H3.83333V2.33341C3.83333 1.41294 4.57953 0.666748 5.5 0.666748H10.5C11.4205 0.666748 12.1667 1.41294 12.1667 2.33341V3.16675H15.5V4.83342H13.8333V15.6667C13.8333 16.5872 13.0871 17.3334 12.1667 17.3334ZM3.83333 4.83342V15.6667H12.1667V4.83342H3.83333ZM5.5 2.33341V3.16675H10.5V2.33341H5.5ZM10.5 14.0001H8.83333V6.50008H10.5V14.0001ZM7.16667 14.0001H5.5V6.50008H7.16667V14.0001Z" fill="#B0D0FF"/>
</svg>
