<svg width="32" height="32" viewBox="0 0 32 32" fill="none" xmlns="http://www.w3.org/2000/svg">
<g clip-path="url(#clip0)">
<path d="M21.2119 16.5519L31.9999 23.1588V9.66602L21.2119 16.5519Z" fill="#3A3A4D"/>
<path d="M0 9.66602V23.1588L10.788 16.5519L0 9.66602Z" fill="#3A3A4D"/>
<path d="M30.0001 5.73682H2.00006C1.00206 5.73682 0.210059 6.45757 0.0600586 7.38563L16.0001 17.5594L31.9401 7.38563C31.7901 6.45757 30.9981 5.73682 30.0001 5.73682Z" fill="#3A3A4D"/>
<path d="M19.38 17.7222L16.55 19.5279C16.382 19.6345 16.192 19.6868 16 19.6868C15.808 19.6868 15.618 19.6345 15.45 19.5279L12.62 17.7202L0.0639648 25.414C0.217965 26.3343 1.00596 27.0493 1.99997 27.0493H30C30.994 27.0493 31.782 26.3343 31.936 25.414L19.38 17.7222Z" fill="#3A3A4D"/>
</g>
<defs>
<clipPath id="clip0">
<rect width="32" height="31" fill="white" transform="translate(0 0.893066)"/>
</clipPath>
</defs>
</svg>
