<svg width="18" height="18" viewBox="0 0 18 18" fill="none" xmlns="http://www.w3.org/2000/svg">
<path d="M16.3117 0.84324C16.4786 0.843234 16.6418 0.892715 16.7805 0.985427C16.9193 1.07814 17.0274 1.20992 17.0913 1.3641C17.1552 1.51828 17.1719 1.68793 17.1393 1.85161C17.1067 2.01528 17.0264 2.16563 16.9084 2.28363L11.2834 7.90863C11.1251 8.06686 10.9105 8.15576 10.6867 8.15576C10.463 8.15576 10.2483 8.06686 10.0901 7.90863C9.93186 7.75039 9.84296 7.53577 9.84296 7.31199C9.84296 7.08821 9.93186 6.87359 10.0901 6.71535L15.7151 1.09035C15.7934 1.01189 15.8864 0.949666 15.9888 0.907258C16.0911 0.86485 16.2009 0.843094 16.3117 0.84324Z" fill="#B0BFDB"/>
<path d="M10.6875 1.96875C10.9113 1.96875 11.1259 2.05764 11.2841 2.21588C11.4424 2.37411 11.5312 2.58872 11.5312 2.8125V6.46875H15.1875C15.4113 6.46875 15.6259 6.55764 15.7841 6.71588C15.9424 6.87411 16.0312 7.08872 16.0312 7.3125C16.0312 7.53628 15.9424 7.75089 15.7841 7.90912C15.6259 8.06736 15.4113 8.15625 15.1875 8.15625H10.6875C10.4637 8.15625 10.2491 8.06736 10.0909 7.90912C9.93265 7.75089 9.84375 7.53628 9.84375 7.3125V2.8125C9.84375 2.58872 9.93265 2.37411 10.0909 2.21588C10.2491 2.05764 10.4637 1.96875 10.6875 1.96875Z" fill="#B0BFDB"/>
<path d="M16.3125 17.1562H1.6875C1.46372 17.1562 1.24911 17.0674 1.09088 16.9091C0.932645 16.7509 0.84375 16.5363 0.84375 16.3125V1.6875C0.84375 1.46372 0.932645 1.24911 1.09088 1.09088C1.24911 0.932645 1.46372 0.84375 1.6875 0.84375H7.875C8.09878 0.84375 8.31339 0.932645 8.47162 1.09088C8.62986 1.24911 8.71875 1.46372 8.71875 1.6875C8.71875 1.91128 8.62986 2.12589 8.47162 2.28412C8.31339 2.44236 8.09878 2.53125 7.875 2.53125H2.53125V15.4688H15.4688V10.125C15.4688 9.90122 15.5576 9.68661 15.7159 9.52838C15.8741 9.37014 16.0887 9.28125 16.3125 9.28125C16.5363 9.28125 16.7509 9.37014 16.9091 9.52838C17.0674 9.68661 17.1562 9.90122 17.1562 10.125V16.3125C17.1562 16.5363 17.0674 16.7509 16.9091 16.9091C16.7509 17.0674 16.5363 17.1562 16.3125 17.1562Z" fill="#B0BFDB"/>
</svg>
