<svg width="20" height="20" viewBox="0 0 20 20" fill="none" xmlns="http://www.w3.org/2000/svg">
<path d="M19.3906 9.49609C16.8945 6.42188 13.5586 4.72656 10 4.72656C6.44141 4.72656 3.10547 6.42188 0.609375 9.49609C0.371094 9.78906 0.371094 10.207 0.609375 10.5C3.10547 13.5781 6.44141 15.2734 10 15.2734C13.5586 15.2734 16.8945 13.5781 19.3906 10.5039C19.6289 10.2109 19.6289 9.78906 19.3906 9.49609ZM10 12.6133C8.55859 12.6133 7.38672 11.4414 7.38672 10C7.38672 8.55859 8.55859 7.38672 10 7.38672C11.4414 7.38672 12.6133 8.55859 12.6133 10C12.6133 11.4414 11.4414 12.6133 10 12.6133ZM2.27344 10C3.75 8.35156 5.51172 7.22266 7.41016 6.68359C6.42578 7.45313 5.78906 8.65234 5.78906 10C5.78906 11.3438 6.42188 12.543 7.41016 13.3164C5.51172 12.7773 3.75391 11.6484 2.27344 10ZM12.5898 13.3164C13.5742 12.5469 14.2109 11.3477 14.2109 10C14.2109 8.65625 13.5781 7.45703 12.5898 6.68359C14.4883 7.22266 16.25 8.35156 17.7266 10C16.2461 11.6484 14.4883 12.7773 12.5898 13.3164Z" fill="#CCD2E3"/>
</svg>
