<svg width="32" height="32" viewBox="0 0 32 32" fill="none" xmlns="http://www.w3.org/2000/svg">
<path d="M3.06921 15.9857C3.07072 22.3399 7.69132 27.7502 13.967 28.7461V19.7186H10.69V15.9857H13.9709V13.144C13.8242 11.7975 14.2841 10.4555 15.2259 9.48206C16.1677 8.50858 17.4937 8.0045 18.8443 8.10653C19.8138 8.12218 20.7808 8.20852 21.7377 8.36486V11.5411H20.105C19.5429 11.4675 18.9778 11.6531 18.5689 12.0457C18.16 12.4383 17.9515 12.9953 18.0022 13.5599V15.9857H21.5814L21.0092 19.7199H18.0022V28.7461C24.7892 27.6735 29.5485 21.475 28.8322 14.6412C28.1158 7.80734 22.1746 2.73052 15.3127 3.08863C8.45076 3.44675 3.0703 9.11442 3.06921 15.9857Z" fill="#0047B3"/>
</svg>
