<svg width="66" height="66" viewBox="0 0 66 66" fill="none" xmlns="http://www.w3.org/2000/svg">
<g filter="url(#filter0_d)">
<rect x="15" y="10" width="36" height="36" rx="4" fill="white"/>
</g>
<path d="M20.0692 27.9857C20.0707 34.3399 24.6913 39.7502 30.967 40.7461V31.7186H27.69V27.9857H30.9709V25.144C30.8242 23.7975 31.2841 22.4555 32.2259 21.4821C33.1677 20.5086 34.4937 20.0045 35.8443 20.1065C36.8138 20.1222 37.7808 20.2085 38.7377 20.3649V23.5411H37.105C36.5429 23.4675 35.9778 23.6531 35.5689 24.0457C35.16 24.4383 34.9515 24.9953 35.0022 25.5599V27.9857H38.5814L38.0092 31.7199H35.0022V40.7461C41.7892 39.6735 46.5485 33.475 45.8322 26.6412C45.1158 19.8073 39.1746 14.7305 32.3127 15.0886C25.4508 15.4467 20.0703 21.1144 20.0692 27.9857Z" fill="#0047B3"/>
<defs>
<filter id="filter0_d" x="0" y="0" width="66" height="66" filterUnits="userSpaceOnUse" color-interpolation-filters="sRGB">
<feFlood flood-opacity="0" result="BackgroundImageFix"/>
<feColorMatrix in="SourceAlpha" type="matrix" values="0 0 0 0 0 0 0 0 0 0 0 0 0 0 0 0 0 0 127 0"/>
<feOffset dy="5"/>
<feGaussianBlur stdDeviation="7.5"/>
<feColorMatrix type="matrix" values="0 0 0 0 0 0 0 0 0 0 0 0 0 0 0 0 0 0 0.06 0"/>
<feBlend mode="normal" in2="BackgroundImageFix" result="effect1_dropShadow"/>
<feBlend mode="normal" in="SourceGraphic" in2="effect1_dropShadow" result="shape"/>
</filter>
</defs>
</svg>
