<svg width="66" height="66" viewBox="0 0 66 66" fill="none" xmlns="http://www.w3.org/2000/svg">
<g filter="url(#filter0_d)">
<rect x="15" y="10" width="36" height="36" rx="4" fill="white"/>
</g>
<path d="M26.0596 27.9656C26.0596 26.6775 26.4145 25.4708 27.0311 24.4375V20.0547H22.6482C20.9087 22.3138 19.9658 25.0672 19.9658 27.9656C19.9658 30.8641 20.9087 33.6174 22.6482 35.8766H27.0311V31.4938C26.4145 30.4605 26.0596 29.2538 26.0596 27.9656Z" fill="#FBBD00"/>
<path d="M32.9658 34.8716L29.9189 37.9185L32.9658 40.9654C35.8644 40.9654 38.6176 40.0225 40.8768 38.2829V33.9048H36.4986C35.4563 34.5236 34.2445 34.8716 32.9658 34.8716Z" fill="#0F9D58"/>
<path d="M27.0313 31.4937L22.6484 35.8765C22.9928 36.3238 23.3679 36.7521 23.7736 37.1579C26.229 39.6133 29.4936 40.9655 32.966 40.9655V34.8718C30.446 34.8718 28.2374 33.5149 27.0313 31.4937Z" fill="#31AA52"/>
<path d="M45.9658 27.9655C45.9658 27.1746 45.8942 26.3822 45.7529 25.6104L45.6386 24.9858H32.9658V31.0796H39.1333C38.5344 32.271 37.6135 33.243 36.4986 33.905L40.8767 38.2831C41.324 37.9387 41.7523 37.5637 42.1582 37.1579C44.6136 34.7025 45.9658 31.4379 45.9658 27.9655Z" fill="#3C79E6"/>
<path d="M37.8493 23.0819L38.3879 23.6204L42.6968 19.3115L42.1582 18.773C39.7029 16.3176 36.4383 14.9653 32.9658 14.9653L29.9189 18.0122L32.9658 21.0591C34.8105 21.0591 36.5448 21.7774 37.8493 23.0819Z" fill="#CF2D48"/>
<path d="M32.9661 21.0591V14.9653C29.4936 14.9653 26.2291 16.3176 23.7736 18.7729C23.3679 19.1787 22.9928 19.607 22.6484 20.0544L27.0313 24.4372C28.2375 22.416 30.4461 21.0591 32.9661 21.0591Z" fill="#EB4132"/>
<defs>
<filter id="filter0_d" x="0" y="0" width="66" height="66" filterUnits="userSpaceOnUse" color-interpolation-filters="sRGB">
<feFlood flood-opacity="0" result="BackgroundImageFix"/>
<feColorMatrix in="SourceAlpha" type="matrix" values="0 0 0 0 0 0 0 0 0 0 0 0 0 0 0 0 0 0 127 0"/>
<feOffset dy="5"/>
<feGaussianBlur stdDeviation="7.5"/>
<feColorMatrix type="matrix" values="0 0 0 0 0 0 0 0 0 0 0 0 0 0 0 0 0 0 0.06 0"/>
<feBlend mode="normal" in2="BackgroundImageFix" result="effect1_dropShadow"/>
<feBlend mode="normal" in="SourceGraphic" in2="effect1_dropShadow" result="shape"/>
</filter>
</defs>
</svg>
