<svg width="36" height="36" viewBox="0 0 36 36" fill="none" xmlns="http://www.w3.org/2000/svg">
<rect width="36" height="36" rx="4" fill="white"/>
<path d="M11.0596 17.9656C11.0596 16.6775 11.4145 15.4708 12.0311 14.4375V10.0547H7.64824C5.90873 12.3138 4.96582 15.0672 4.96582 17.9656C4.96582 20.8641 5.90873 23.6174 7.64824 25.8766H12.0311V21.4938C11.4145 20.4605 11.0596 19.2538 11.0596 17.9656Z" fill="#FBBD00"/>
<path d="M17.9658 24.8716L14.919 27.9185L17.9658 30.9654C20.8644 30.9654 23.6176 30.0225 25.8768 28.2829V23.9048H21.4986C20.4563 24.5236 19.2446 24.8716 17.9658 24.8716Z" fill="#0F9D58"/>
<path d="M12.0313 21.4937L7.64843 25.8765C7.99283 26.3238 8.36785 26.7521 8.77364 27.1579C11.229 29.6133 14.4936 30.9655 17.966 30.9655V24.8718C15.446 24.8718 13.2374 23.5149 12.0313 21.4937Z" fill="#31AA52"/>
<path d="M30.9658 17.9655C30.9658 17.1746 30.8942 16.3822 30.753 15.6104L30.6386 14.9858H17.9658V21.0796H24.1333C23.5344 22.271 22.6135 23.243 21.4986 23.905L25.8767 28.2831C26.324 27.9387 26.7524 27.5637 27.1582 27.1579C29.6136 24.7025 30.9658 21.4379 30.9658 17.9655Z" fill="#3C79E6"/>
<path d="M22.8493 13.0819L23.3879 13.6204L27.6968 9.31155L27.1582 8.77296C24.7029 6.31759 21.4383 4.96533 17.9658 4.96533L14.919 8.01221L17.9658 11.0591C19.8105 11.0591 21.5448 11.7774 22.8493 13.0819Z" fill="#CF2D48"/>
<path d="M17.9661 11.0591V4.96533C14.4936 4.96533 11.2291 6.31759 8.77364 8.77291C8.36785 9.1787 7.99283 9.60704 7.64843 10.0544L12.0313 14.4372C13.2375 12.416 15.4461 11.0591 17.9661 11.0591Z" fill="#EB4132"/>
</svg>
