<svg width="35" height="35" viewBox="0 0 35 35" fill="none" xmlns="http://www.w3.org/2000/svg">
<path d="M34.8299 17.5002C34.8299 27.0719 27.0724 34.8294 17.5007 34.8294C7.92894 34.8294 0.171387 27.0719 0.171387 17.5002C0.171387 7.92845 7.92894 0.170898 17.5007 0.170898C27.0724 0.170898 34.8299 7.92845 34.8299 17.5002Z" fill="#A6CE39"/>
<path d="M11.8549 25.3796H9.77002V10.8799H11.8549V17.4325V25.3796V25.3796Z" fill="white"/>
<path d="M14.9148 10.8799H20.5468C25.908 10.8799 28.2637 14.7113 28.2637 18.1365C28.2637 21.8596 25.353 25.3931 20.5739 25.3931H14.9148V10.8799V10.8799ZM16.9997 23.5113H20.3167C25.0416 23.5113 26.1247 19.9236 26.1247 18.1365C26.1247 15.2257 24.2699 12.7617 20.2083 12.7617H16.9997V23.5113Z" fill="white"/>
<path d="M12.1801 7.86104C12.1801 8.60566 11.5709 9.22843 10.8127 9.22843C10.0545 9.22843 9.44531 8.60566 9.44531 7.86104C9.44531 7.10288 10.0545 6.49365 10.8127 6.49365C11.5709 6.49365 12.1801 7.11642 12.1801 7.86104Z" fill="white"/>
</svg>
