<svg width="79" height="79" viewBox="0 0 79 79" fill="none" xmlns="http://www.w3.org/2000/svg">
<g filter="url(#filter0_d)">
<rect x="15" y="10" width="49" height="49" rx="4" fill="white"/>
</g>
<path d="M56.8299 34.5002C56.8299 44.0719 49.0724 51.8294 39.5007 51.8294C29.9289 51.8294 22.1714 44.0719 22.1714 34.5002C22.1714 24.9285 29.9289 17.1709 39.5007 17.1709C49.0724 17.1709 56.8299 24.9285 56.8299 34.5002Z" fill="#A6CE39"/>
<path d="M33.8549 42.3796H31.77V27.8799H33.8549V34.4325V42.3796Z" fill="white"/>
<path d="M36.9148 27.8799H42.5468C47.908 27.8799 50.2637 31.7113 50.2637 35.1365C50.2637 38.8596 47.353 42.3931 42.5739 42.3931H36.9148V27.8799ZM38.9997 40.5113H42.3167C47.0416 40.5113 48.1247 36.9236 48.1247 35.1365C48.1247 32.2257 46.2699 29.7617 42.2083 29.7617H38.9997V40.5113Z" fill="white"/>
<path d="M34.1801 24.861C34.1801 25.6057 33.5709 26.2284 32.8127 26.2284C32.0545 26.2284 31.4453 25.6057 31.4453 24.861C31.4453 24.1029 32.0545 23.4937 32.8127 23.4937C33.5709 23.4937 34.1801 24.1164 34.1801 24.861Z" fill="white"/>
<defs>
<filter id="filter0_d" x="0" y="0" width="79" height="79" filterUnits="userSpaceOnUse" color-interpolation-filters="sRGB">
<feFlood flood-opacity="0" result="BackgroundImageFix"/>
<feColorMatrix in="SourceAlpha" type="matrix" values="0 0 0 0 0 0 0 0 0 0 0 0 0 0 0 0 0 0 127 0"/>
<feOffset dy="5"/>
<feGaussianBlur stdDeviation="7.5"/>
<feColorMatrix type="matrix" values="0 0 0 0 0 0 0 0 0 0 0 0 0 0 0 0 0 0 0.06 0"/>
<feBlend mode="normal" in2="BackgroundImageFix" result="effect1_dropShadow"/>
<feBlend mode="normal" in="SourceGraphic" in2="effect1_dropShadow" result="shape"/>
</filter>
</defs>
</svg>
