<svg  viewBox="0 0 31 32" fill="none" xmlns="http://www.w3.org/2000/svg">
<g clip-path="url(#clip0)">
<path d="M22.6085 0.404297H8.3914C3.76431 0.404297 0 4.1686 0 8.7957V23.0131C0 27.6399 3.76431 31.4042 8.3914 31.4042H22.6088C27.2356 31.4042 30.9999 27.6399 30.9999 23.0131V8.7957C30.9999 4.1686 27.2356 0.404297 22.6085 0.404297V0.404297ZM15.5 24.3806C10.826 24.3806 7.02366 20.5782 7.02366 15.9043C7.02366 11.2303 10.826 7.42796 15.5 7.42796C20.1739 7.42796 23.9763 11.2303 23.9763 15.9043C23.9763 20.5782 20.1739 24.3806 15.5 24.3806ZM24.179 9.42695C22.7977 9.42695 21.6743 8.30352 21.6743 6.9223C21.6743 5.54107 22.7977 4.41741 24.179 4.41741C25.5602 4.41741 26.6839 5.54107 26.6839 6.9223C26.6839 8.30352 25.5602 9.42695 24.179 9.42695Z"/>
<path d="M15.5 9.24536C11.8284 9.24536 8.841 12.2325 8.841 15.9043C8.841 19.5759 11.8284 22.5633 15.5 22.5633C19.1718 22.5633 22.1589 19.5759 22.1589 15.9043C22.1589 12.2325 19.1718 9.24536 15.5 9.24536Z" />
<path d="M24.1789 6.23499C23.8 6.23499 23.4916 6.5434 23.4916 6.92229C23.4916 7.30118 23.8 7.60959 24.1789 7.60959C24.5581 7.60959 24.8665 7.30141 24.8665 6.92229C24.8665 6.54316 24.5581 6.23499 24.1789 6.23499Z"/>
</g>
<defs>
<clipPath id="clip0">
<rect width="31" height="31" fill="white" transform="translate(0 0.404297)"/>
</clipPath>
</defs>
</svg>
