<svg width="16" height="19" viewBox="0 0 16 19" fill="none" xmlns="http://www.w3.org/2000/svg">
<path d="M8.38072 17.3882L8.27132 18.1302L8.38072 17.3882ZM11.5742 17.3891L11.1826 16.7495L11.5742 17.3891ZM12.0648 16.9655L12.6404 17.4463L12.0648 16.9655ZM6.12514 17.0556L6.01574 17.7976L6.12514 17.0556ZM1.7296 15.6704L1.1619 16.1605L1.7296 15.6704ZM1.7296 3.32959L2.29729 3.81971L1.7296 3.32959ZM8.32371 2.37829L6.23454 2.68634L6.01573 1.20238L8.1049 0.894336L8.32371 2.37829ZM1.75037 7.88018V11.1198H0.250373V7.88018H1.75037ZM6.23455 16.3137L8.49012 16.6462L8.27132 18.1302L6.01574 17.7976L6.23455 16.3137ZM8.49012 16.6462C9.36638 16.7755 9.95972 16.8617 10.4128 16.876C10.8528 16.8898 11.052 16.8294 11.1826 16.7495L11.9659 18.0287C11.4779 18.3275 10.9386 18.3933 10.3656 18.3753C9.80578 18.3576 9.11167 18.2541 8.27132 18.1302L8.49012 16.6462ZM13.2798 13.8061C13.2798 14.6555 13.281 15.3573 13.2167 15.9138C13.151 16.4832 13.0073 17.0071 12.6404 17.4463L11.4892 16.4848C11.5873 16.3673 11.6761 16.179 11.7266 15.7417C11.7786 15.2914 11.7798 14.6918 11.7798 13.8061H13.2798ZM11.1826 16.7495C11.2985 16.6785 11.402 16.5891 11.4892 16.4848L12.6404 17.4463C12.4488 17.6758 12.2209 17.8725 11.9659 18.0287L11.1826 16.7495ZM1.75037 11.1198C1.75037 12.3746 1.75176 13.2456 1.83564 13.9111C1.91688 14.5557 2.06595 14.9123 2.29729 15.1803L1.1619 16.1605C0.664021 15.5839 0.448481 14.9006 0.347413 14.0987C0.248982 13.3177 0.250373 12.3357 0.250373 11.1198H1.75037ZM6.01574 17.7976C4.81291 17.6203 3.84119 17.4784 3.08292 17.2671C2.30434 17.0501 1.65979 16.7372 1.1619 16.1605L2.29729 15.1803C2.52863 15.4482 2.85975 15.6477 3.48557 15.8221C4.13172 16.0022 4.99316 16.1306 6.23455 16.3137L6.01574 17.7976ZM6.23454 2.68634C4.99316 2.86938 4.13172 2.9978 3.48557 3.17786C2.85975 3.35225 2.52863 3.55176 2.29729 3.81971L1.1619 2.83946C1.65979 2.26278 2.30434 1.94987 3.08292 1.73291C3.84119 1.52161 4.81291 1.37974 6.01573 1.20238L6.23454 2.68634ZM0.250373 7.88018C0.250373 6.66435 0.248982 5.68232 0.347413 4.90134C0.448481 4.09944 0.664021 3.41614 1.1619 2.83946L2.29729 3.81971C2.06595 4.08767 1.91688 4.44434 1.83564 5.08891C1.75176 5.75441 1.75037 6.62537 1.75037 7.88018H0.250373ZM8.1049 0.894336C9.02254 0.759031 9.78036 0.645884 10.3886 0.632724C11.0126 0.619222 11.5963 0.705437 12.1092 1.06532L11.2477 2.29325C11.1084 2.19554 10.8974 2.12207 10.421 2.13237C9.92884 2.14302 9.28069 2.23718 8.32371 2.37829L8.1049 0.894336ZM11.7798 5.36214C11.7798 4.39481 11.7784 3.73986 11.7171 3.2514C11.6578 2.77863 11.5544 2.58053 11.4374 2.45701L12.5265 1.4256C12.9574 1.88057 13.1278 2.44544 13.2055 3.06474C13.2812 3.66836 13.2798 4.43458 13.2798 5.36214H11.7798ZM12.1092 1.06532C12.26 1.17113 12.3998 1.29183 12.5265 1.4256L11.4374 2.45701C11.3798 2.39621 11.3163 2.34135 11.2477 2.29325L12.1092 1.06532Z" fill="#B8C0D8"/>
<path d="M8.33333 6L5 9.5M5 9.5L8.33333 13M5 9.5H15" stroke="#B8C0D8" stroke-width="1.5" stroke-linecap="round" stroke-linejoin="round"/>
</svg>
