<svg width="23" height="23" viewBox="0 0 23 23" fill="none" xmlns="http://www.w3.org/2000/svg">
<g clip-path="url(#clip0)">
<path d="M14.2037 3.86304L1.54882 16.5189C1.48515 16.5827 1.43918 16.6634 1.41729 16.75L0.0146103 22.3801C-0.0273478 22.5495 0.0224547 22.7298 0.14614 22.8535C0.239725 22.947 0.367241 22.9988 0.497676 22.9988C0.537627 22.9988 0.578491 22.9939 0.61826 22.9839L6.24831 21.581C6.33605 21.5591 6.41577 21.5133 6.47944 21.4497L19.1355 8.79476L14.2037 3.86304Z" fill="#2C80FF"/>
<path d="M22.2714 2.13743L20.8627 0.728735C19.9212 -0.212769 18.2802 -0.211856 17.3398 0.728735L15.6143 2.45431L20.5458 7.38584L22.2714 5.66027C22.7417 5.19016 23.0007 4.56443 23.0007 3.89894C23.0007 3.23345 22.7417 2.60773 22.2714 2.13743Z" fill="#2C80FF"/>
</g>
<defs>
<clipPath id="clip0">
<rect width="23" height="23" fill="white"/>
</clipPath>
</defs>
</svg>
