<svg width="73" height="73" viewBox="0 0 73 73" fill="none" xmlns="http://www.w3.org/2000/svg">
<ellipse cx="36.5" cy="36.4443" rx="36.5" ry="36.4443" fill="#EBF3FF"/>
<path fill-rule="evenodd" clip-rule="evenodd" d="M25.9311 52.8442C40.7007 46.0448 61.2925 59.3396 61.2925 59.3396V61.7698C51.9645 72.8884 30.312 77.83 16.323 66.8036C17.2833 62.706 18.1826 59.9327 18.9709 59.0655C19.0506 58.9778 19.1316 58.8885 19.2139 58.7979C21.1151 56.7031 23.6754 53.8823 25.9311 52.8442Z" fill="url(#paint0_linear)"/>
<path fill-rule="evenodd" clip-rule="evenodd" d="M9.02519 60.4271C15.9639 56.1077 24.761 52.5078 24.761 52.5078L22.2719 70.4187C15.4668 67.9479 10.5538 62.3163 9.02519 60.4271Z" fill="url(#paint1_linear)"/>
<path d="M29.0871 59.0103C33.6378 59.9014 40.323 58.9515 45.2173 55.7302C43.524 51.8643 42.3674 47.7856 41.7794 43.6072C41.7608 43.4639 41.7467 43.3254 41.7325 43.191C41.6093 42.2704 41.5904 41.3389 41.6761 40.4141H29.9108C29.9108 40.4141 26.6941 41.8826 26.6941 42.8972C26.6941 43.4405 26.6894 43.9598 26.68 44.4551C26.6563 45.8061 26.6023 46.9856 26.5317 47.9984C26.4544 49.6278 26.253 51.2489 25.9293 52.8477C25.9293 52.8477 24.4919 58.1102 29.0871 59.0103Z" fill="#FFDAC3"/>
<path d="M26.5292 47.9969C35.4424 49.7167 40.6169 44.8529 41.7769 43.6057C41.9417 43.4269 42.0264 43.3214 42.0264 43.3214C41.9324 43.274 41.8333 43.2321 41.73 43.1895C38.4122 41.8481 30.8824 42.9149 26.6775 44.4536C26.6538 45.8046 26.5998 46.9841 26.5292 47.9969Z" fill="#F7C09B"/>
<path d="M44.6916 38.4826C43.0988 47.042 32.0377 46.7608 27.2575 46.2229C25.9122 46.0735 25.0658 45.9021 25.0658 45.9021C23.5491 45.4974 22.7029 43.1119 22.3095 39.9872C21.5291 33.8036 22.5152 24.7259 23.561 22.4044C25.1357 18.9108 28.1016 15.1324 39.2409 17.8584C50.3819 20.5868 46.7353 27.5157 44.6916 38.4826Z" fill="#FFDAC3"/>
<path d="M23.1459 17.6269C24.6683 15.5225 27.8963 12.9509 30.8282 11.3672C37.127 7.96482 45.1883 11.4743 45.2219 11.489C54.3205 15.4832 56.6962 22.4337 51.8725 33.2606C46.7717 44.7097 41.9149 43.4216 41.9149 43.4216C41.9149 43.4216 42.9458 42.7812 42.8527 39.2127C42.8473 39.01 42.8392 38.8403 42.8299 38.6946C42.8004 38.333 42.8533 37.9696 42.9847 37.6314C43.1162 37.2932 43.3227 36.9892 43.5887 36.7422C44.7187 35.7354 45.2697 32.6892 44.3232 31.8413C43.1815 30.8183 41.5774 32.0607 41.0648 33.0166C40.9674 33.1816 40.837 33.3247 40.6817 33.4372C40.5265 33.5496 40.3497 33.629 40.1624 33.6702C39.9751 33.7115 39.7813 33.7139 39.5931 33.6771C39.4048 33.6404 39.2262 33.5654 39.0683 33.4567C36.2363 31.6692 38.0758 28.0941 35.37 25.9066C32.6638 23.7196 27.1729 25.5558 23.1137 23.8129C17.7999 21.8359 21.9985 19.213 23.1459 17.6269Z" fill="url(#paint2_linear)"/>
<path fill-rule="evenodd" clip-rule="evenodd" d="M57.9768 55.1905C60.1799 56.0724 63.5802 57.5172 64.7021 59.5963C64.7021 59.5963 55.6785 72.2705 37.1192 72.8882C38.2777 68.8029 39.7001 60.9824 40.9199 57.8562C42.0351 55.0061 43.1011 52.9764 43.9881 52.5416H43.9905C43.9905 52.5416 46.3537 51.8805 48.5845 52.9874C51.4834 53.4511 57.397 54.9584 57.9768 55.1905Z" fill="url(#paint3_linear)"/>
<path fill-rule="evenodd" clip-rule="evenodd" d="M48.6558 53.0342C46.8517 50.4497 43.0996 49.7949 43.0996 49.7949C40.952 51.6586 38.1322 65.4875 36.5004 72.8875H37.119C41.0579 65.8555 48.6558 53.0342 48.6558 53.0342Z" fill="white"/>
<path fill-rule="evenodd" clip-rule="evenodd" d="M22.3779 54.1818C22.8898 52.8973 25.1617 50.5731 26.3467 50.127C26.3179 51.047 26.1782 51.9603 25.9305 52.8469C24.8694 56.9701 23.4221 65.4564 22.2699 70.4193L22.3779 54.1818Z" fill="white"/>
<defs>
<linearGradient id="paint0_linear" x1="23.0747" y1="65.7415" x2="37.4529" y2="68.6405" gradientUnits="userSpaceOnUse">
<stop stop-color="#4498E8"/>
<stop offset="1" stop-color="#5BB2FB"/>
</linearGradient>
<linearGradient id="paint1_linear" x1="16.8931" y1="52.5078" x2="16.8931" y2="70.4187" gradientUnits="userSpaceOnUse">
<stop stop-color="#CFE6E6"/>
<stop offset="1" stop-color="white"/>
</linearGradient>
<linearGradient id="paint2_linear" x1="29.2201" y1="13.7969" x2="47.1915" y2="41.8571" gradientUnits="userSpaceOnUse">
<stop stop-color="#626262"/>
<stop offset="1" stop-color="#333333"/>
</linearGradient>
<linearGradient id="paint3_linear" x1="50.9106" y1="52.3457" x2="50.9106" y2="72.8882" gradientUnits="userSpaceOnUse">
<stop stop-color="#CFE6E6"/>
<stop offset="1" stop-color="white"/>
</linearGradient>
</defs>
</svg>
