<svg width="32" height="32" viewBox="0 0 36 36" fill="none" xmlns="http://www.w3.org/2000/svg">
<g clip-path="url(#clip0)">
<path d="M16.2271 15.8077C14.1094 15.8077 12.2756 15.0482 10.7773 13.5496C9.27905 12.0513 8.51953 10.2181 8.51953 8.10019C8.51953 5.98301 9.27905 4.14952 10.7776 2.65075C12.2761 1.15271 14.1096 0.393188 16.2271 0.393188C18.345 0.393188 20.1782 1.15271 21.6765 2.65099C23.1748 4.14928 23.9346 5.98277 23.9346 8.10019C23.9346 10.2181 23.1748 12.0516 21.6763 13.5499C20.1777 15.0479 18.3442 15.8077 16.2271 15.8077Z" fill="#3A3A4D"/>
<path d="M2.74097 24.9995C2.78418 24.3759 2.87158 23.6958 3.00024 22.9775C3.13013 22.2539 3.29736 21.5698 3.49756 20.9446C3.70435 20.2983 3.9856 19.6601 4.33325 19.0486C4.69409 18.4138 5.11792 17.8611 5.59351 17.4062C6.09082 16.9304 6.69971 16.5478 7.40381 16.2688C8.10547 15.9912 8.88306 15.8506 9.71484 15.8506C10.0415 15.8506 10.3574 15.9846 10.9675 16.3818C11.343 16.6267 11.7822 16.9099 12.2725 17.2231C12.6917 17.4902 13.2595 17.7405 13.9609 17.967C14.6453 18.1885 15.3401 18.3008 16.0259 18.3008C16.7117 18.3008 17.4062 18.1885 18.0913 17.967C18.792 17.7407 19.3599 17.4905 19.7786 17.2234C20.2642 16.9131 20.7036 16.6299 21.0847 16.3816C21.6941 15.9844 22.0103 15.8503 22.3369 15.8503C23.1689 15.8503 23.9463 15.9912 24.6477 16.269C25.3513 16.5476 25.9604 16.9302 26.4583 17.4065C26.9336 17.8616 27.3577 18.4141 27.718 19.0486C28.0654 19.6601 28.3467 20.2981 28.5537 20.9448C28.7537 21.57 28.9209 22.2539 29.0508 22.9775C29.1794 23.6948 29.2668 24.3752 29.3101 25.0002C29.3525 25.6125 29.374 26.248 29.374 26.8898C29.374 28.5603 28.843 29.9125 27.7959 30.9099C26.7617 31.894 25.3933 32.3932 23.7292 32.3932H8.32104C6.65698 32.3932 5.28906 31.8942 4.25464 30.9099C3.20728 29.9133 2.67627 28.5607 2.67627 26.8896C2.67651 26.2448 2.69824 25.6088 2.74097 24.9995Z" fill="#3A3A4D"/>
</g>
<defs>
<clipPath id="clip0">
<rect width="32" height="32" fill="white" transform="matrix(-1 0 0 1 31.999 0.393188)"/>
</clipPath>
</defs>
</svg>
